<?xml version="1.0" encoding="UTF-8" standalone="no"?>
<!DOCTYPE svg PUBLIC "-//W3C//DTD SVG 1.1//EN" "http://www.w3.org/Graphics/SVG/1.1/DTD/svg11.dtd">
<svg width="100%" height="100%" viewBox="0 0 1250 800" version="1.1" xmlns="http://www.w3.org/2000/svg" xmlns:xlink="http://www.w3.org/1999/xlink" xml:space="preserve" xmlns:serif="http://www.serif.com/" style="fill-rule:evenodd;clip-rule:evenodd;stroke-linejoin:round;stroke-miterlimit:2;">
    <g transform="matrix(4.16667,0,0,4.16667,0,0)">
        <g transform="matrix(0.592105,0,0,0.592105,-11.8421,-12.4573)">
            <g transform="matrix(1,0,0,1,-0.1275,5.6275)">
                <path d="M444.94,259.236C445.657,259.337 453.765,259.621 459.727,262.711C465.051,265.471 468.213,270.797 470.051,275.01C471.084,277.377 472.194,279.27 472.194,281.878C472.194,287.735 472.447,292.376 474.621,297.874C475.306,299.607 476.74,303.342 478.883,303.784C479.469,303.904 483.301,301.463 487.93,292.525C489.971,288.584 490.889,283.307 493.19,277.853C496.28,270.529 500.832,261.791 504.134,255.623C509.327,245.921 512.861,239.16 516.767,233.087C521.943,225.039 526.641,219.009 525.636,216.878C524.699,214.893 504.25,222.503 501.38,223.363C491.647,226.281 443.284,247.843 442.107,248.358C438.315,250.017 429.385,254.067 430.203,258.373C430.5,259.941 441.715,258.78 444.94,259.236Z"/>
            </g>
            <g transform="matrix(1.00054,0,0,1.00015,-6.26996,-7.22521)">
                <path d="M483.669,284.632C469.831,301.301 420.5,338.847 330.211,317.493C274.744,304.374 221.902,269.4 196.087,277.036C139.861,293.666 144.581,357.821 78.893,350.49C46.09,346.829 32.141,302.95 28.412,286.659C20.59,252.49 34.497,214.899 62.887,188.927C103.907,151.4 61.974,59.171 65.789,33.22C66.758,26.628 85.17,26.585 85.778,33.22C88.293,60.671 121.897,160.399 80.877,197.926C52.487,223.898 36.942,253.533 48.401,286.659C53.891,302.53 64.139,327.354 84.89,330.493C126.642,336.81 125.622,276.256 192.089,258.039C228.447,248.074 303.563,295.823 350.201,301.495C420.149,310.003 436.116,295.782 465.06,274.429C469.871,270.879 488.189,279.188 483.669,284.632Z"/>
            </g>
            <g transform="matrix(1.00054,0,0,1.00015,53.9352,18.7748)">
                <path d="M145.743,33.22C145.715,25.884 165.778,24.755 165.733,33.22C165.679,43.174 172.908,212.827 115.816,213.193C58.917,213.557 66.057,39.897 65.789,33.22C65.522,26.562 85.927,26.559 85.778,33.22C85.625,40.068 84.369,193.129 115.817,193.196C144.582,193.257 145.775,41.369 145.743,33.22Z"/>
            </g>
            <g transform="matrix(6.12653e-17,1.00054,-1.00015,6.12417e-17,463.226,17.1554)">
                <path d="M194.793,123.207C194.764,115.871 214.828,114.741 214.782,123.207C214.729,133.161 214.52,212.561 115.816,213.193C29.252,213.746 29.207,129.884 28.939,123.207C28.672,116.549 49.077,116.545 48.928,123.207C48.775,130.055 46.39,193.196 115.817,193.196C194.755,193.196 194.825,131.356 194.793,123.207Z"/>
            </g>
            <g transform="matrix(1,0,0,1,46,7)">
                <circle cx="339.954" cy="49.601" r="10.011"/>
            </g>
            <g transform="matrix(-1,6.82456e-05,-6.82456e-05,-1,725.915,271.765)">
                <path d="M339.954,39.589C345.479,39.589 349.965,44.075 349.965,49.601C349.965,55.126 350.184,195.199 339.954,195.199C329.723,195.198 329.942,55.126 329.942,49.601C329.942,44.075 334.428,39.589 339.954,39.589Z"/>
            </g>
        </g>
    </g>
</svg>
